<?xml version="1.0" encoding="UTF-8"?>
<svg width="32px" height="32px" viewBox="0 0 32 32" version="1.1" xmlns="http://www.w3.org/2000/svg" xmlns:xlink="http://www.w3.org/1999/xlink">
    <!-- Generator: Sketch 59.1 (86144) - https://sketch.com -->
    <title>database_light</title>
    <desc>Created with Sketch.</desc>
    <g id="database_light" stroke="none" stroke-width="1" fill="none" fill-rule="evenodd" fill-opacity="0.26">
        <g id="database" transform="translate(5.000000, 4.000000)" fill="#101418" fill-rule="nonzero">
            <path d="M3.5,8.31836528 L3.5,11.871954 C3.5295072,11.9038836 3.57397929,11.9452902 3.63471927,11.9934213 C3.93114115,12.2283101 4.43432036,12.4774601 5.09999828,12.6996941 C6.60871521,13.2033734 8.71873917,13.5 11,13.5 C13.2812608,13.5 15.3912848,13.2033734 16.9000017,12.6996941 C17.5656796,12.4774601 18.0688588,12.2283101 18.3652807,11.9934213 C18.4260207,11.9452902 18.4704928,11.9038836 18.5,11.8719528 L18.5,8.31836528 C16.5936196,9.09723341 13.9368061,9.5 11,9.5 C8.06319391,9.5 5.40638041,9.09723341 3.5,8.31836528 L3.5,8.31836528 Z M0.5,4.99997458 C0.5,2.06828491 5.20489868,0.5 11,0.5 C16.7951181,0.5 21.5,2.06829398 21.5,5 L21.5,19 C21.5,21.9365866 16.8169644,23.5 11,23.5 C5.18303556,23.5 0.5,21.9365866 0.5,19 L0.5,5 L0.5,4.99997458 Z M18.5,15.3235193 C16.5970266,16.0996216 13.9437086,16.5 11,16.5 C8.05629139,16.5 5.40297343,16.0996216 3.5,15.3235193 L3.5,18.8719528 C3.5295072,18.9038836 3.57397929,18.9452902 3.63471927,18.9934213 C3.93114115,19.2283101 4.43432036,19.4774601 5.09999828,19.6996941 C6.60871521,20.2033734 8.71873917,20.5 11,20.5 C13.2812608,20.5 15.3912848,20.2033734 16.9000017,19.6996941 C17.5656796,19.4774601 18.0688588,19.2283101 18.3652807,18.9934213 C18.4260207,18.9452902 18.4704928,18.9038836 18.5,18.8719528 L18.5,15.3235193 Z M5.11038062,5.6982954 C6.62322766,6.20257774 8.73278324,6.5 11,6.5 C13.2672168,6.5 15.3767723,6.20257774 16.8896194,5.6982954 C17.5486809,5.47860822 18.0502557,5.2326794 18.3509787,5 C18.0502557,4.7673206 17.5486809,4.52139178 16.8896194,4.3017046 C15.3767723,3.79742226 13.2672168,3.5 11,3.5 C8.73278324,3.5 6.62322766,3.79742226 5.11038062,4.3017046 C4.45131909,4.52139178 3.94974431,4.7673206 3.64902134,5 C3.94974431,5.2326794 4.45131909,5.47860822 5.11038062,5.6982954 Z" id="Shape"></path>
        </g>
    </g>
</svg>